<svg height="512pt" viewBox="0 0 512 512" width="512pt" xmlns="http://www.w3.org/2000/svg"><path d="m248.5 99v29c0 4.144531 3.359375 7.5 7.5 7.5 4.144531 0 7.5-3.355469 7.5-7.5v-29c0-4.144531-3.355469-7.5-7.5-7.5-4.140625 0-7.5 3.355469-7.5 7.5zm0 0"/><path d="m263.5 413v-29c0-4.144531-3.355469-7.5-7.5-7.5-4.140625 0-7.5 3.355469-7.5 7.5v29c0 4.144531 3.359375 7.5 7.5 7.5 4.144531 0 7.5-3.355469 7.5-7.5zm0 0"/><path d="m135.5 256c0-4.144531-3.359375-7.5-7.5-7.5h-29c-4.140625 0-7.5 3.355469-7.5 7.5s3.359375 7.5 7.5 7.5h29c4.140625 0 7.5-3.355469 7.5-7.5zm0 0"/><path d="m193.496094 132.738281-9.5-16.453125c-2.070313-3.589844-6.660156-4.816406-10.246094-2.746094-3.585938 2.070313-4.816406 6.65625-2.746094 10.246094l9.5 16.453125c1.390625 2.40625 3.910156 3.75 6.503906 3.75 1.269532 0 2.5625-.324219 3.742188-1.003906 3.585938-2.074219 4.816406-6.660156 2.746094-10.246094zm0 0"/><path d="m334.507812 399.46875c1.269532 0 2.5625-.324219 3.742188-1.007812 3.585938-2.070313 4.816406-6.65625 2.746094-10.246094l-9.5-16.453125c-2.074219-3.585938-6.660156-4.8125-10.246094-2.746094-3.585938 2.074219-4.816406 6.660156-2.746094 10.246094l9.5 16.453125c1.390625 2.40625 3.910156 3.753906 6.503906 3.753906zm0 0"/><path d="m375.519531 194.5c1.269531 0 2.5625-.324219 3.742188-1.003906l16.453125-9.5c3.589844-2.070313 4.816406-6.660156 2.746094-10.246094-2.070313-3.585938-6.660157-4.8125-10.246094-2.746094l-16.453125 9.5c-3.585938 2.070313-4.816407 6.660156-2.746094 10.246094 1.390625 2.40625 3.910156 3.75 6.503906 3.75zm0 0"/><path d="m120.039062 342c1.273438 0 2.5625-.324219 3.746094-1.003906l16.453125-9.5c3.585938-2.070313 4.816407-6.660156 2.746094-10.246094-2.074219-3.585938-6.660156-4.8125-10.246094-2.746094l-16.453125 9.5c-3.589844 2.070313-4.816406 6.660156-2.746094 10.246094 1.390626 2.40625 3.910157 3.75 6.5 3.75zm0 0"/><path d="m140.238281 180.503906-16.453125-9.5c-3.589844-2.070312-8.175781-.84375-10.246094 2.746094-2.070312 3.585938-.84375 8.175781 2.746094 10.246094l16.453125 9.5c1.179688.679687 2.472657 1.003906 3.742188 1.003906 2.59375 0 5.113281-1.34375 6.503906-3.75 2.070313-3.585938.839844-8.175781-2.746094-10.246094zm0 0"/><path d="m391.960938 342c2.589843 0 5.109374-1.34375 6.5-3.75 2.070312-3.585938.84375-8.175781-2.746094-10.246094l-16.453125-9.5c-3.585938-2.070312-8.175781-.84375-10.246094 2.746094-2.070313 3.585938-.839844 8.175781 2.746094 10.246094l16.453125 9.5c1.179687.679687 2.472656 1.003906 3.746094 1.003906zm0 0"/><path d="m190.75 369.015625c-3.585938-2.070313-8.175781-.839844-10.246094 2.746094l-9.5 16.453125c-2.070312 3.589844-.839844 8.175781 2.746094 10.246094 1.179688.683593 2.472656 1.007812 3.742188 1.007812 2.59375 0 5.113281-1.347656 6.503906-3.753906l9.5-16.453125c2.070312-3.585938.839844-8.171875-2.746094-10.246094zm0 0"/><path d="m420.5 256c0-4.144531-3.355469-7.5-7.5-7.5h-130.546875c-.589844-2.074219-1.414063-4.050781-2.449219-5.894531l32.390625-32.390625c2.925781-2.929688 2.925781-7.679688 0-10.605469-2.929687-2.929687-7.679687-2.929687-10.609375 0l-32.386718 32.386719c-3.96875-2.222656-8.535157-3.496094-13.398438-3.496094-15.164062 0-27.5 12.339844-27.5 27.5 0 15.164062 12.335938 27.5 27.5 27.5 12.5625 0 23.179688-8.472656 26.453125-20h130.546875c4.144531 0 7.5-3.355469 7.5-7.5zm-164.5 12.5c-6.894531 0-12.5-5.605469-12.5-12.5s5.605469-12.5 12.5-12.5 12.5 5.605469 12.5 12.5-5.605469 12.5-12.5 12.5zm0 0"/><path d="m328.460938 68.421875-.050782-.121094c-.011718-.023437-.019531-.03125-.03125-.0625l-.019531-.027343c-.398437-.902344-.960937-1.699219-1.671875-2.371094-.019531-.019532-.039062-.039063-.058594-.050782l-.019531-.027343c-.75-.683594-1.609375-1.210938-2.570313-1.550781-21.820312-7.773438-44.699218-11.710938-68.011718-11.710938h-.027344c-13.789062 0-27.570312 1.398438-40.96875 4.148438-13.050781 2.671874-25.902344 6.671874-38.171875 11.871093-12.058594 5.109375-23.6875 11.429688-34.570313 18.78125-10.769531 7.289063-20.910156 15.648438-30.117187 24.867188-9.222656 9.210937-17.582031 19.351562-24.871094 30.121093-7.351562 10.878907-13.671875 22.511719-18.78125 34.570313-5.199219 12.269531-9.199219 25.117187-11.871093 38.167969-2.75 13.402344-4.148438 27.183594-4.148438 40.972656v.519531c.308594 111.621094 91.371094 202.679688 202.988281 202.980469h.113281.398438.03125c22.839844 0 45.277344-3.78125 66.699219-11.238281 20.710937-7.210938 40.039062-17.691407 57.460937-31.152344 3.269532-2.527344 3.878906-7.25 1.347656-10.519531-1.429687-1.851563-3.589843-2.917969-5.9375-2.917969-1.671874 0-3.25.546875-4.582031 1.566406-33.238281 25.683594-73.019531 39.25-115.019531 39.261719h-.328125c-.070313 0-.140625 0-.222656 0-103.398438-.269531-187.71875-84.621094-187.949219-188.019531v-.480469c0-50.261719 19.628906-97.578125 55.269531-133.222656 35.660157-35.648438 82.96875-55.277344 133.230469-55.277344 21.539062 0 42.679688 3.628906 62.839844 10.777344 1.78125.691406 3.769531.671875 5.550781-.066406h.007813c1.023437-.433594 1.921874-1.0625 2.660156-1.882813.023437-.007813.03125-.019531.042968-.039063l.019532-.011718c.648437-.726563 1.140625-1.558594 1.46875-2.488282.570312-1.601562.582031-3.308593.042968-4.917968l-.03125-.09375-.050781.023437.039063-.03125-.027344-.089843c-.011719-.019532-.023438-.039063-.023438-.058594-.007812-.023438-.019531-.042969-.019531-.042969l-.007812-.039063c-.011719-.019531-.023438-.039062-.03125-.050781v-.027343c-.011719-.011719-.019531-.039063-.019531-.039063zm0 0"/><path d="m506.511719 203.011719c-3.550781-16.871094-8.851563-33.433594-15.742188-49.230469-5.390625-12.359375-17.570312-20.351562-31.007812-20.351562h-.0625c-5.929688 0-11.789063 1.589843-16.9375 4.609374-5.171875 3.011719-9.460938 7.351563-12.402344 12.539063-2.867187 5.082031-4.390625 10.832031-4.378906 16.652344-.011719 4.667969.941406 9.207031 2.828125 13.5 10.410156 23.808593 15.691406 49.128906 15.691406 75.269531-.011719 46.769531-17.328125 91.671875-48.789062 126.410156-1.261719 1.390625-1.949219 3.179688-1.941407 5.050782 0 2.109374.902344 4.128906 2.460938 5.539062 1.378906 1.261719 3.167969 1.949219 5.03125 1.949219 2.117187-.011719 4.136719-.898438 5.558593-2.46875 8.191407-9.03125 15.601563-18.851563 22.03125-29.179688 6.507813-10.441406 12.078126-21.523437 16.578126-32.933593 9.339843-23.699219 14.070312-48.726563 14.070312-74.367188 0-14.183594-1.480469-28.351562-4.390625-42.121094-2.839844-13.417968-7.058594-26.589844-12.558594-39.160156-1.050781-2.390625-1.570312-4.910156-1.570312-7.488281 0-6.671875 3.578125-12.890625 9.328125-16.242188 2.910156-1.6875 6.082031-2.558593 9.410156-2.558593 7.519531.019531 14.3125 4.46875 17.300781 11.347656 13.261719 30.402344 19.980469 62.773437 19.980469 96.222656 0 64.359375-25.070312 124.878906-70.589844 170.410156-45.519531 45.519532-106.039062 70.589844-170.410156 70.589844s-124.890625-25.070312-170.410156-70.589844c-1.109375-1.101562-2.230469-2.25-3.351563-3.410156-.039062-.039062-.078125-.089844-.128906-.128906-43.269531-45.101563-67.109375-104.359375-67.109375-166.871094 0-64.371094 25.070312-124.890625 70.589844-170.410156 45.519531-45.519532 106.039062-70.589844 170.410156-70.589844 37.03125 0 72.550781 8.179688 105.589844 24.308594 2.109375 1.03125 4.640625 1 6.71875-.070313 2.132812-1.097656 3.582031-3.089843 3.972656-5.449219 1.796875-10.890624 11.117188-18.789062 22.15625-18.789062h.023438c5.890624 0 11.507812 2.4375 15.820312 6.851562 4.257812 4.378907 6.699219 10.308594 6.6875 16.269532v60.898437c-.019531 12.378907-10.121094 22.480469-22.5 22.5h-60.878906c-5.980469 0-11.921875-2.4375-16.289063-6.6875-4.421875-4.3125-6.851562-9.933593-6.851562-15.820312v-.300781c.027343-2-.730469-3.898438-2.132813-5.328126-1.386718-1.441406-3.257812-2.242187-5.269531-2.273437-.027344 0-.070313 0-.097656 0-4.082031 0-7.453125 3.320313-7.5 7.402344v.199219.300781c0 5.066406 1.039062 10.007812 3.097656 14.679687 1.960937 4.457032 4.761719 8.46875 8.292969 11.898438 3.519531 3.421875 7.589844 6.101562 12.109375 7.988281 4.667969 1.949219 9.597656 2.941406 14.648437 2.941406h60.871094c10.019531 0 19.429688-3.898437 26.507812-10.980469 7.082032-7.078124 10.992188-16.5 10.992188-26.519531v-60.898437c-.011719-5.050782-1-9.972656-2.953125-14.640625-1.878906-4.511719-4.566406-8.582031-7.988281-12.089844-3.425782-3.539063-7.425782-6.332031-11.886719-8.289063-4.671875-2.0625-9.609375-3.101562-14.679687-3.101562-7.382813.0117188-14.511719 2.148438-20.640626 6.1875-5.949218 3.941406-10.640624 9.453125-13.5625 15.941406-16.070312-7.167968-32.929687-12.691406-50.128906-16.390625-17.679687-3.808593-35.890625-5.738281-54.128906-5.738281h-.011719c-17.359375 0-34.71875 1.75-51.589843 5.199219-16.429688 3.371093-32.597657 8.390625-48.046876 14.921875-15.179687 6.417968-29.8125 14.359375-43.492187 23.609375-13.558594 9.160156-26.300781 19.667969-37.878906 31.25-11.582031 11.578125-22.101563 24.320312-31.261719 37.878906-9.238281 13.691406-17.179688 28.320313-23.597656 43.488281-6.542969 15.460938-11.550782 31.632813-14.921875 48.0625-3.449219 16.867188-5.199219 34.230469-5.199219 51.589844 0 16.921875 1.660156 33.839844 4.941406 50.289062 3.199219 16.050782 7.96875 31.851563 14.1875 46.980469 6.101563 14.851563 13.671875 29.210938 22.480469 42.691407 8.71875 13.339843 18.761719 25.929687 29.820313 37.4375 1.261718 1.300781 2.421874 2.488281 3.550781 3.621093 11.578125 11.578125 24.320312 22.089844 37.878906 31.25 13.679687 9.25 28.3125 17.1875 43.492187 23.609375 15.449219 6.527344 31.617188 11.550782 48.046876 14.917969 16.871093 3.449219 34.222656 5.199219 51.589843 5.199219h.03125c17.359375 0 34.710938-1.75 51.582031-5.207032 16.429688-3.359374 32.597657-8.382812 48.046876-14.921874 15.171874-6.410157 29.8125-14.351563 43.492187-23.601563 13.558594-9.160156 26.300781-19.667969 37.878906-31.25 11.582031-11.578125 22.101563-24.320313 31.25-37.878906 9.25-13.691407 17.191407-28.320313 23.609375-43.488281 6.53125-15.460938 11.5625-31.632813 14.921875-48.0625 3.449219-16.867188 5.199219-34.230469 5.199219-51.589844 0-17.835938-1.851562-35.667969-5.488281-52.984375zm0 0"/></svg>